<?xml version="1.0" encoding="UTF-8" standalone="no"?>
<svg xmlns="http://www.w3.org/2000/svg" xmlns:xlink="http://www.w3.org/1999/xlink" contentScriptType="application/ecmascript" contentStyleType="text/css" height="553px" preserveAspectRatio="none" style="width:360px;height:553px;background:#FFFFFF;" version="1.1" viewBox="0 0 360 553" width="360px" zoomAndPan="magnify"><defs><filter height="300%" id="felmdx2319k2w" width="300%" x="-1" y="-1"><feGaussianBlur result="blurOut" stdDeviation="2.0"/><feColorMatrix in="blurOut" result="blurOut2" type="matrix" values="0 0 0 0 0 0 0 0 0 0 0 0 0 0 0 0 0 0 .4 0"/><feOffset dx="4.0" dy="4.0" in="blurOut2" result="blurOut3"/><feBlend in="SourceGraphic" in2="blurOut3" mode="normal"/></filter></defs><g><text fill="#000000" font-family="sans-serif" font-size="18" lengthAdjust="spacing" textLength="47" x="155.5" y="26.708">Start</text><ellipse cx="173" cy="40.9531" fill="#000000" filter="url(#felmdx2319k2w)" rx="10" ry="10" style="stroke:none;stroke-width:1.0;"/><rect fill="#FEFECE" filter="url(#felmdx2319k2w)" height="47.9375" rx="12.5" ry="12.5" style="stroke:#A80036;stroke-width:1.5;" width="139" x="103.5" y="70.9531"/><text fill="#000000" font-family="sans-serif" font-size="12" lengthAdjust="spacing" textLength="119" x="113.5" y="92.0918">Selected projection</text><text fill="#000000" font-family="sans-serif" font-size="12" lengthAdjust="spacing" textLength="73" x="133.5" y="106.0605">subset = {}</text><rect fill="#FEFECE" filter="url(#felmdx2319k2w)" height="47.9375" rx="12.5" ry="12.5" style="stroke:#A80036;stroke-width:1.5;" width="170" x="88" y="194.6011"/><text fill="#000000" font-family="sans-serif" font-size="12" lengthAdjust="spacing" textLength="150" x="98" y="215.7397">Find the best performing</text><text fill="#000000" font-family="sans-serif" font-size="12" lengthAdjust="spacing" textLength="148" x="98" y="229.7085">projections for that case</text><rect fill="#FEFECE" filter="url(#felmdx2319k2w)" height="47.9375" rx="12.5" ry="12.5" style="stroke:#A80036;stroke-width:1.5;" width="252" x="47" y="312.5503"/><text fill="#000000" font-family="sans-serif" font-size="12" lengthAdjust="spacing" textLength="232" x="57" y="333.689">Add one of the projections (randomly)</text><text fill="#000000" font-family="sans-serif" font-size="12" lengthAdjust="spacing" textLength="202" x="69" y="347.6577">to the selected projection subset</text><polygon fill="#FEFECE" filter="url(#felmdx2319k2w)" points="48,262.5386,298,262.5386,310,275.3433,298,288.1479,48,288.1479,36,275.3433,48,262.5386" style="stroke:#A80036;stroke-width:1.5;"/><text fill="#000000" font-family="sans-serif" font-size="11" lengthAdjust="spacing" textLength="14" x="177" y="298.3584">no</text><text fill="#000000" font-family="sans-serif" font-size="11" lengthAdjust="spacing" textLength="244" x="48" y="272.749">Any of the best performing projections are</text><text fill="#000000" font-family="sans-serif" font-size="11" lengthAdjust="spacing" textLength="242" x="56" y="285.5537">already in the selected projection subset?</text><text fill="#000000" font-family="sans-serif" font-size="11" lengthAdjust="spacing" textLength="21" x="310" y="272.749">yes</text><polygon fill="#FEFECE" filter="url(#felmdx2319k2w)" points="173,380.4878,185,392.4878,173,404.4878,161,392.4878,173,380.4878" style="stroke:#A80036;stroke-width:1.5;"/><polygon fill="#FEFECE" filter="url(#felmdx2319k2w)" points="96,138.8906,250,138.8906,262,150.8906,250,162.8906,96,162.8906,84,150.8906,96,138.8906" style="stroke:#A80036;stroke-width:1.5;"/><text fill="#000000" font-family="sans-serif" font-size="11" lengthAdjust="spacing" textLength="21" x="177" y="173.1011">Yes</text><text fill="#000000" font-family="sans-serif" font-size="11" lengthAdjust="spacing" textLength="154" x="96" y="154.6987">Any new benchmark case?</text><text fill="#000000" font-family="sans-serif" font-size="11" lengthAdjust="spacing" textLength="15" x="69" y="148.2964">No</text><rect fill="#FEFECE" filter="url(#felmdx2319k2w)" height="47.9375" rx="12.5" ry="12.5" style="stroke:#A80036;stroke-width:1.5;" width="242" x="52" y="446.4878"/><text fill="#000000" font-family="sans-serif" font-size="12" lengthAdjust="spacing" textLength="198" x="74" y="467.6265">Generate MLBlock Verilog model</text><text fill="#000000" font-family="sans-serif" font-size="12" lengthAdjust="spacing" textLength="222" x="62" y="481.5952">using the selected projection subset</text><ellipse cx="173" cy="525.4253" fill="#FFFFFF" filter="url(#felmdx2319k2w)" rx="11" ry="11" style="stroke:#000000;stroke-width:1.0;"/><ellipse cx="173" cy="525.4253" fill="#000000" rx="6" ry="6" style="stroke:#7F7F7F;stroke-width:1.0;"/><line style="stroke:#A80036;stroke-width:1.5;" x1="173" x2="173" y1="50.9531" y2="70.9531"/><polygon fill="#A80036" points="169,60.9531,173,70.9531,177,60.9531,173,64.9531" style="stroke:#A80036;stroke-width:1.0;"/><line style="stroke:#A80036;stroke-width:1.5;" x1="173" x2="173" y1="288.1479" y2="312.5503"/><polygon fill="#A80036" points="169,302.5503,173,312.5503,177,302.5503,173,306.5503" style="stroke:#A80036;stroke-width:1.0;"/><line style="stroke:#A80036;stroke-width:1.5;" x1="310" x2="322" y1="275.3433" y2="275.3433"/><polygon fill="#A80036" points="318,326.1167,322,336.1167,326,326.1167,322,330.1167" style="stroke:#A80036;stroke-width:1.5;"/><line style="stroke:#A80036;stroke-width:1.5;" x1="322" x2="322" y1="275.3433" y2="392.4878"/><line style="stroke:#A80036;stroke-width:1.5;" x1="322" x2="185" y1="392.4878" y2="392.4878"/><polygon fill="#A80036" points="195,388.4878,185,392.4878,195,396.4878,191,392.4878" style="stroke:#A80036;stroke-width:1.0;"/><line style="stroke:#A80036;stroke-width:1.5;" x1="173" x2="173" y1="360.4878" y2="380.4878"/><polygon fill="#A80036" points="169,370.4878,173,380.4878,177,370.4878,173,374.4878" style="stroke:#A80036;stroke-width:1.0;"/><line style="stroke:#A80036;stroke-width:1.5;" x1="173" x2="173" y1="242.5386" y2="262.5386"/><polygon fill="#A80036" points="169,252.5386,173,262.5386,177,252.5386,173,256.5386" style="stroke:#A80036;stroke-width:1.0;"/><line style="stroke:#A80036;stroke-width:1.5;" x1="173" x2="173" y1="162.8906" y2="194.6011"/><polygon fill="#A80036" points="169,184.6011,173,194.6011,177,184.6011,173,188.6011" style="stroke:#A80036;stroke-width:1.0;"/><line style="stroke:#A80036;stroke-width:1.5;" x1="173" x2="173" y1="404.4878" y2="414.4878"/><line style="stroke:#A80036;stroke-width:1.5;" x1="173" x2="334" y1="414.4878" y2="414.4878"/><polygon fill="#A80036" points="330,285.8433,334,275.8433,338,285.8433,334,281.8433" style="stroke:#A80036;stroke-width:1.5;"/><line style="stroke:#A80036;stroke-width:1.5;" x1="334" x2="334" y1="150.8906" y2="414.4878"/><line style="stroke:#A80036;stroke-width:1.5;" x1="334" x2="262" y1="150.8906" y2="150.8906"/><polygon fill="#A80036" points="272,146.8906,262,150.8906,272,154.8906,268,150.8906" style="stroke:#A80036;stroke-width:1.0;"/><line style="stroke:#A80036;stroke-width:1.5;" x1="84" x2="24" y1="150.8906" y2="150.8906"/><polygon fill="#A80036" points="20,271.8433,24,281.8433,28,271.8433,24,275.8433" style="stroke:#A80036;stroke-width:1.5;"/><line style="stroke:#A80036;stroke-width:1.5;" x1="24" x2="24" y1="150.8906" y2="426.4878"/><line style="stroke:#A80036;stroke-width:1.5;" x1="24" x2="173" y1="426.4878" y2="426.4878"/><line style="stroke:#A80036;stroke-width:1.5;" x1="173" x2="173" y1="426.4878" y2="446.4878"/><polygon fill="#A80036" points="169,436.4878,173,446.4878,177,436.4878,173,440.4878" style="stroke:#A80036;stroke-width:1.0;"/><line style="stroke:#A80036;stroke-width:1.5;" x1="173" x2="173" y1="118.8906" y2="138.8906"/><polygon fill="#A80036" points="169,128.8906,173,138.8906,177,128.8906,173,132.8906" style="stroke:#A80036;stroke-width:1.0;"/><line style="stroke:#A80036;stroke-width:1.5;" x1="173" x2="173" y1="494.4253" y2="514.4253"/><polygon fill="#A80036" points="169,504.4253,173,514.4253,177,504.4253,173,508.4253" style="stroke:#A80036;stroke-width:1.0;"/><!--MD5=[a5e320179220ed811e7a86f464878961]
@startuml
title Start

start

:Selected projection
     subset = {};

while (Any new benchmark case?)  is (Yes)
  :Find the best performing 
  projections for that case;
  
  if (Any of the best performing projections are 
  already in the selected projection subset?) then (yes)
    
  else (no)
    :Add one of the projections (randomly) 
       to the selected projection subset;
  endif

endwhile (No)

:   Generate MLBlock Verilog model
using the selected projection subset;

stop
@enduml

PlantUML version 1.2021.10beta5(Unknown compile time)
(GPL source distribution)
Java Runtime: Java(TM) SE Runtime Environment
JVM: Java HotSpot(TM) 64-Bit Server VM
Default Encoding: UTF-8
Language: en
Country: US
--></g></svg>