<?xml version="1.0" encoding="UTF-8" standalone="no"?>
<svg xmlns="http://www.w3.org/2000/svg" xmlns:xlink="http://www.w3.org/1999/xlink" contentScriptType="application/ecmascript" contentStyleType="text/css" height="753px" preserveAspectRatio="none" style="width:498px;height:753px;background:#FFFFFF;" version="1.1" viewBox="0 0 498 753" width="498px" zoomAndPan="magnify"><defs><filter height="300%" id="fl4ug4ew93ams" width="300%" x="-1" y="-1"><feGaussianBlur result="blurOut" stdDeviation="2.0"/><feColorMatrix in="blurOut" result="blurOut2" type="matrix" values="0 0 0 0 0 0 0 0 0 0 0 0 0 0 0 0 0 0 .4 0"/><feOffset dx="4.0" dy="4.0" in="blurOut2" result="blurOut3"/><feBlend in="SourceGraphic" in2="blurOut3" mode="normal"/></filter></defs><g><text fill="#000000" font-family="sans-serif" font-size="18" lengthAdjust="spacing" textLength="47" x="224.5" y="26.708">Start</text><ellipse cx="248" cy="40.9531" fill="#000000" filter="url(#fl4ug4ew93ams)" rx="10" ry="10" style="stroke:none;stroke-width:1.0;"/><rect fill="#FEFECE" filter="url(#fl4ug4ew93ams)" height="61.9063" rx="12.5" ry="12.5" style="stroke:#A80036;stroke-width:1.5;" width="199" x="148.5" y="70.9531"/><text fill="#000000" font-family="sans-serif" font-size="12" lengthAdjust="spacing" textLength="129" x="178.5" y="92.0918">Generate all possible</text><text fill="#000000" font-family="sans-serif" font-size="12" lengthAdjust="spacing" textLength="175" x="158.5" y="106.0605">projections using Benchmark</text><text fill="#000000" font-family="sans-serif" font-size="12" lengthAdjust="spacing" textLength="177" x="158.5" y="120.0293">cases and design constraints</text><rect fill="#000000" filter="url(#fl4ug4ew93ams)" height="6" rx="2.5" ry="2.5" style="stroke:#000000;stroke-width:1.0;" width="424" x="36" y="208.5698"/><rect fill="#FEFECE" filter="url(#fl4ug4ew93ams)" height="47.9375" rx="12.5" ry="12.5" style="stroke:#A80036;stroke-width:1.5;" width="216" x="48" y="234.5698"/><text fill="#000000" font-family="sans-serif" font-size="12" lengthAdjust="spacing" textLength="189" x="58" y="255.7085">Generate Verilog model for the</text><text fill="#000000" font-family="sans-serif" font-size="12" lengthAdjust="spacing" textLength="196" x="58" y="269.6772">corresponding MLBlock instance</text><rect fill="#FEFECE" filter="url(#fl4ug4ew93ams)" height="33.9688" rx="12.5" ry="12.5" style="stroke:#A80036;stroke-width:1.5;" width="125" x="93.5" y="316.4761"/><text fill="#000000" font-family="sans-serif" font-size="12" lengthAdjust="spacing" textLength="105" x="103.5" y="337.6147">Run the synthesis</text><rect fill="#FEFECE" filter="url(#fl4ug4ew93ams)" height="47.9375" rx="12.5" ry="12.5" style="stroke:#A80036;stroke-width:1.5;" width="177" x="67.5" y="384.4136"/><text fill="#000000" font-family="sans-serif" font-size="12" lengthAdjust="spacing" textLength="157" x="77.5" y="405.5522">Extract the post-synthesis</text><text fill="#000000" font-family="sans-serif" font-size="12" lengthAdjust="spacing" textLength="69" x="125.5" y="419.521">area report</text><rect fill="#FEFECE" filter="url(#fl4ug4ew93ams)" height="61.9063" rx="12.5" ry="12.5" style="stroke:#A80036;stroke-width:1.5;" width="156" x="292" y="302.5073"/><text fill="#000000" font-family="sans-serif" font-size="12" lengthAdjust="spacing" textLength="131" x="302" y="323.646">Calculate the average</text><text fill="#000000" font-family="sans-serif" font-size="12" lengthAdjust="spacing" textLength="128" x="306" y="337.6147">utilization rate for the</text><text fill="#000000" font-family="sans-serif" font-size="12" lengthAdjust="spacing" textLength="106" x="314" y="351.5835">projection subset</text><rect fill="#000000" filter="url(#fl4ug4ew93ams)" height="6" rx="2.5" ry="2.5" style="stroke:#000000;stroke-width:1.0;" width="424" x="36" y="452.3511"/><rect fill="#FEFECE" filter="url(#fl4ug4ew93ams)" height="33.9688" rx="12.5" ry="12.5" style="stroke:#A80036;stroke-width:1.5;" width="241" x="127.5" y="526.7534"/><text fill="#000000" font-family="sans-serif" font-size="12" lengthAdjust="spacing" textLength="221" x="137.5" y="547.8921">Save the subset as the best solution</text><polygon fill="#FEFECE" filter="url(#fl4ug4ew93ams)" points="120.5,478.3511,375.5,478.3511,387.5,490.3511,375.5,502.3511,120.5,502.3511,108.5,490.3511,120.5,478.3511" style="stroke:#A80036;stroke-width:1.5;"/><text fill="#000000" font-family="sans-serif" font-size="11" lengthAdjust="spacing" textLength="21" x="252" y="512.5615">yes</text><text fill="#000000" font-family="sans-serif" font-size="11" lengthAdjust="spacing" textLength="255" x="120.5" y="494.1592">Does it deliver the best utilization per area?</text><text fill="#000000" font-family="sans-serif" font-size="11" lengthAdjust="spacing" textLength="14" x="387.5" y="487.7568">no</text><polygon fill="#FEFECE" filter="url(#fl4ug4ew93ams)" points="248,580.7222,260,592.7222,248,604.7222,236,592.7222,248,580.7222" style="stroke:#A80036;stroke-width:1.5;"/><polygon fill="#FEFECE" filter="url(#fl4ug4ew93ams)" points="152.5,152.8594,343.5,152.8594,355.5,164.8594,343.5,176.8594,152.5,176.8594,140.5,164.8594,152.5,152.8594" style="stroke:#A80036;stroke-width:1.5;"/><text fill="#000000" font-family="sans-serif" font-size="11" lengthAdjust="spacing" textLength="21" x="252" y="187.0698">Yes</text><text fill="#000000" font-family="sans-serif" font-size="11" lengthAdjust="spacing" textLength="191" x="152.5" y="168.6675">Any new subset of N projections?</text><text fill="#000000" font-family="sans-serif" font-size="11" lengthAdjust="spacing" textLength="15" x="125.5" y="162.2651">No</text><rect fill="#FEFECE" filter="url(#fl4ug4ew93ams)" height="47.9375" rx="12.5" ry="12.5" style="stroke:#A80036;stroke-width:1.5;" width="254" x="121" y="646.7222"/><text fill="#000000" font-family="sans-serif" font-size="12" lengthAdjust="spacing" textLength="234" x="131" y="667.8608">Generate MLBlock Verilog model using</text><text fill="#000000" font-family="sans-serif" font-size="12" lengthAdjust="spacing" textLength="195" x="147" y="681.8296">the best subset of N projections</text><ellipse cx="248" cy="725.6597" fill="#FFFFFF" filter="url(#fl4ug4ew93ams)" rx="11" ry="11" style="stroke:#000000;stroke-width:1.0;"/><ellipse cx="248" cy="725.6597" fill="#000000" rx="6" ry="6" style="stroke:#7F7F7F;stroke-width:1.0;"/><line style="stroke:#A80036;stroke-width:1.5;" x1="248" x2="248" y1="50.9531" y2="70.9531"/><polygon fill="#A80036" points="244,60.9531,248,70.9531,252,60.9531,248,64.9531" style="stroke:#A80036;stroke-width:1.0;"/><line style="stroke:#A80036;stroke-width:1.5;" x1="156" x2="156" y1="282.5073" y2="316.4761"/><polygon fill="#A80036" points="152,306.4761,156,316.4761,160,306.4761,156,310.4761" style="stroke:#A80036;stroke-width:1.0;"/><line style="stroke:#A80036;stroke-width:1.5;" x1="156" x2="156" y1="350.4448" y2="384.4136"/><polygon fill="#A80036" points="152,374.4136,156,384.4136,160,374.4136,156,378.4136" style="stroke:#A80036;stroke-width:1.0;"/><line style="stroke:#A80036;stroke-width:1.5;" x1="156" x2="156" y1="214.5698" y2="234.5698"/><polygon fill="#A80036" points="152,224.5698,156,234.5698,160,224.5698,156,228.5698" style="stroke:#A80036;stroke-width:1.0;"/><line style="stroke:#A80036;stroke-width:1.5;" x1="370" x2="370" y1="214.5698" y2="302.5073"/><polygon fill="#A80036" points="366,292.5073,370,302.5073,374,292.5073,370,296.5073" style="stroke:#A80036;stroke-width:1.0;"/><line style="stroke:#A80036;stroke-width:1.5;" x1="156" x2="156" y1="432.3511" y2="452.3511"/><polygon fill="#A80036" points="152,442.3511,156,452.3511,160,442.3511,156,446.3511" style="stroke:#A80036;stroke-width:1.0;"/><line style="stroke:#A80036;stroke-width:1.5;" x1="370" x2="370" y1="364.4136" y2="452.3511"/><polygon fill="#A80036" points="366,442.3511,370,452.3511,374,442.3511,370,446.3511" style="stroke:#A80036;stroke-width:1.0;"/><line style="stroke:#A80036;stroke-width:1.5;" x1="248" x2="248" y1="502.3511" y2="526.7534"/><polygon fill="#A80036" points="244,516.7534,248,526.7534,252,516.7534,248,520.7534" style="stroke:#A80036;stroke-width:1.0;"/><line style="stroke:#A80036;stroke-width:1.5;" x1="387.5" x2="399.5" y1="490.3511" y2="490.3511"/><polygon fill="#A80036" points="395.5,533.7378,399.5,543.7378,403.5,533.7378,399.5,537.7378" style="stroke:#A80036;stroke-width:1.5;"/><line style="stroke:#A80036;stroke-width:1.5;" x1="399.5" x2="399.5" y1="490.3511" y2="592.7222"/><line style="stroke:#A80036;stroke-width:1.5;" x1="399.5" x2="260" y1="592.7222" y2="592.7222"/><polygon fill="#A80036" points="270,588.7222,260,592.7222,270,596.7222,266,592.7222" style="stroke:#A80036;stroke-width:1.0;"/><line style="stroke:#A80036;stroke-width:1.5;" x1="248" x2="248" y1="560.7222" y2="580.7222"/><polygon fill="#A80036" points="244,570.7222,248,580.7222,252,570.7222,248,574.7222" style="stroke:#A80036;stroke-width:1.0;"/><line style="stroke:#A80036;stroke-width:1.5;" x1="248" x2="248" y1="458.3511" y2="478.3511"/><polygon fill="#A80036" points="244,468.3511,248,478.3511,252,468.3511,248,472.3511" style="stroke:#A80036;stroke-width:1.0;"/><line style="stroke:#A80036;stroke-width:1.5;" x1="248" x2="248" y1="176.8594" y2="208.5698"/><polygon fill="#A80036" points="244,198.5698,248,208.5698,252,198.5698,248,202.5698" style="stroke:#A80036;stroke-width:1.0;"/><line style="stroke:#A80036;stroke-width:1.5;" x1="248" x2="248" y1="604.7222" y2="614.7222"/><line style="stroke:#A80036;stroke-width:1.5;" x1="248" x2="472" y1="614.7222" y2="614.7222"/><polygon fill="#A80036" points="468,406.9136,472,396.9136,476,406.9136,472,402.9136" style="stroke:#A80036;stroke-width:1.5;"/><line style="stroke:#A80036;stroke-width:1.5;" x1="472" x2="472" y1="164.8594" y2="614.7222"/><line style="stroke:#A80036;stroke-width:1.5;" x1="472" x2="355.5" y1="164.8594" y2="164.8594"/><polygon fill="#A80036" points="365.5,160.8594,355.5,164.8594,365.5,168.8594,361.5,164.8594" style="stroke:#A80036;stroke-width:1.0;"/><line style="stroke:#A80036;stroke-width:1.5;" x1="140.5" x2="24" y1="164.8594" y2="164.8594"/><polygon fill="#A80036" points="20,392.9136,24,402.9136,28,392.9136,24,396.9136" style="stroke:#A80036;stroke-width:1.5;"/><line style="stroke:#A80036;stroke-width:1.5;" x1="24" x2="24" y1="164.8594" y2="626.7222"/><line style="stroke:#A80036;stroke-width:1.5;" x1="24" x2="248" y1="626.7222" y2="626.7222"/><line style="stroke:#A80036;stroke-width:1.5;" x1="248" x2="248" y1="626.7222" y2="646.7222"/><polygon fill="#A80036" points="244,636.7222,248,646.7222,252,636.7222,248,640.7222" style="stroke:#A80036;stroke-width:1.0;"/><line style="stroke:#A80036;stroke-width:1.5;" x1="248" x2="248" y1="132.8594" y2="152.8594"/><polygon fill="#A80036" points="244,142.8594,248,152.8594,252,142.8594,248,146.8594" style="stroke:#A80036;stroke-width:1.0;"/><line style="stroke:#A80036;stroke-width:1.5;" x1="248" x2="248" y1="694.6597" y2="714.6597"/><polygon fill="#A80036" points="244,704.6597,248,714.6597,252,704.6597,248,708.6597" style="stroke:#A80036;stroke-width:1.0;"/><!--MD5=[382a0491b331b5740bfd66161a2b8466]
@startuml
title Start

start

:     Generate all possible 
projections using Benchmark 
cases and design constraints;

while (Any new subset of N projections?)  is (Yes)
  
   fork
    :Generate Verilog model for the
    corresponding MLBlock instance;
    :Run the synthesis;
    :Extract the post-synthesis 
                area report;
  fork again
    :Calculate the average 
     utilization rate for the 
       projection subset;
  end fork 
  
  if (Does it deliver the best utilization per area?) then (yes)
    :Save the subset as the best solution;
  else (no)
    
  endif

endwhile (No)

:Generate MLBlock Verilog model using 
    the best subset of N projections;

stop
@enduml

PlantUML version 1.2021.10beta5(Unknown compile time)
(GPL source distribution)
Java Runtime: Java(TM) SE Runtime Environment
JVM: Java HotSpot(TM) 64-Bit Server VM
Default Encoding: UTF-8
Language: en
Country: US
--></g></svg>